HIERARCHY
ROOT character_A_root
{
	OFFSET 0.000000 0.000000 0.000000
	CHANNELS 6 Xposition Yposition Zposition Xrotation Yrotation Zrotation
	JOINT character_A_pelvis
	{
		OFFSET 0.000000 0.000000 0.000000
		CHANNELS 3 Xrotation Yrotation Zrotation
		JOINT character_A_spine
		{
			OFFSET -0.006400 0.538076 0.000000
			CHANNELS 3 Xrotation Yrotation Zrotation
			JOINT character_A_head
			{
				OFFSET 0.012744 0.245383 0.000000
				CHANNELS 3 Xrotation Yrotation Zrotation
				JOINT character_A_nose
				{
					OFFSET -0.008787 -0.131621 -0.002605
					CHANNELS 3 Xrotation Yrotation Zrotation
					End Site
					{
						OFFSET 0.000000 0.050000 0.000000
					}
				}
			}
			JOINT character_A_left_shoulder
			{
				OFFSET 0.108057 -0.069769 0.094471
				CHANNELS 3 Xrotation Yrotation Zrotation
				JOINT character_A_left_elbow
				{
					OFFSET 0.031628 -0.239596 -0.139088
					CHANNELS 3 Xrotation Yrotation Zrotation
					JOINT character_A_left_wrist
					{
						OFFSET 0.010597 -0.101834 -0.186326
						CHANNELS 3 Xrotation Yrotation Zrotation
						End Site
						{
							OFFSET 0.000000 0.050000 0.000000
						}
					}
				}
			}
			JOINT character_A_right_shoulder
			{
				OFFSET -0.114595 -0.059038 0.102763
				CHANNELS 3 Xrotation Yrotation Zrotation
				JOINT character_A_right_elbow
				{
					OFFSET -0.054650 -0.246550 -0.079184
					CHANNELS 3 Xrotation Yrotation Zrotation
					JOINT character_A_right_wrist
					{
						OFFSET -0.039546 -0.120930 -0.167408
						CHANNELS 3 Xrotation Yrotation Zrotation
						End Site
						{
							OFFSET 0.000000 0.050000 0.000000
						}
					}
				}
			}
		}
		JOINT character_A_left_hip
		{
			OFFSET 0.064495 -0.018473 0.101805
			CHANNELS 3 Xrotation Yrotation Zrotation
			JOINT character_A_left_knee
			{
				OFFSET -0.013415 -0.404926 0.097567
				CHANNELS 3 Xrotation Yrotation Zrotation
				JOINT character_A_left_ankle
				{
					OFFSET -0.033827 -0.357830 0.207383
					CHANNELS 3 Xrotation Yrotation Zrotation
					JOINT character_A_left_big_toe
					{
						OFFSET -0.008355 -0.113888 0.066374
						CHANNELS 3 Xrotation Yrotation Zrotation
						End Site
						{
							OFFSET 0.000000 0.050000 0.000000
						}
					}
					JOINT character_A_left_small_toe
					{
						OFFSET 0.019861 -0.105049 0.045203
						CHANNELS 3 Xrotation Yrotation Zrotation
						End Site
						{
							OFFSET 0.000000 0.050000 0.000000
						}
					}
					JOINT character_A_left_heel
					{
						OFFSET -0.015740 -0.054451 0.041248
						CHANNELS 3 Xrotation Yrotation Zrotation
						End Site
						{
							OFFSET 0.000000 0.050000 0.000000
						}
					}
				}
			}
		}
		JOINT character_A_right_hip
		{
			OFFSET -0.060818 -0.017714 0.289385
			CHANNELS 3 Xrotation Yrotation Zrotation
			JOINT character_A_right_knee
			{
				OFFSET 0.024497 -0.400024 0.102706
				CHANNELS 3 Xrotation Yrotation Zrotation
				JOINT character_A_right_ankle
				{
					OFFSET 0.016037 -0.354408 0.210815
					CHANNELS 3 Xrotation Yrotation Zrotation
					JOINT character_A_right_big_toe
					{
						OFFSET -0.000881 -0.112993 0.055364
						CHANNELS 3 Xrotation Yrotation Zrotation
						End Site
						{
							OFFSET 0.000000 0.050000 0.000000
						}
					}
					JOINT character_A_right_small_toe
					{
						OFFSET -0.021559 -0.104872 0.042888
						CHANNELS 3 Xrotation Yrotation Zrotation
						End Site
						{
							OFFSET 0.000000 0.050000 0.000000
						}
					}
					JOINT character_A_right_heel
					{
						OFFSET 0.008712 -0.057795 0.038858
						CHANNELS 3 Xrotation Yrotation Zrotation
						End Site
						{
							OFFSET 0.000000 0.050000 0.000000
						}
					}
				}
			}
		}
	}
}
MOTION
Frames: 14
Frame Time: 0.03333333
0.779948 -0.131325 0.808151 0.000000 0.000000 0.000000 3.414674 2.586019 -3.708357 4.900483 -4.325801 -0.333822 7.144555 1.998495 7.885991 -0.000000 0.000000 -0.000000 -6.267170 4.174131 0.279184 -13.052911 -14.059146 7.324055 -0.000000 0.000000 -0.000000 -7.491267 3.974679 -3.892825 -19.153972 15.073268 0.658791 0.000000 0.000000 0.000000 -19.725683 -2.969412 4.645409 2.470704 1.051232 -0.554987 7.903789 17.459724 -3.828987 -0.000000 0.000000 0.000000 -0.000000 0.000000 0.000000 -0.000000 0.000000 0.000000 -14.807107 -3.044376 10.139183 6.840884 0.410761 -3.638154 -5.291981 -24.913589 10.351925 0.000000 0.000000 -0.000000 0.000000 0.000000 -0.000000 0.000000 0.000000 -0.000000
0.773518 -0.123434 0.755803 0.000000 0.000000 0.000000 3.481502 2.628118 -4.154449 7.043594 -4.160124 0.050677 7.404396 1.848228 7.285768 0.000000 0.000000 -0.000000 -10.978598 4.664781 -1.351980 -13.009708 -13.250466 7.693602 0.000000 0.000000 0.000000 -11.771132 2.994039 0.027228 -19.592948 13.683539 0.002116 0.000000 0.000000 0.000000 -20.427345 -3.226781 4.561571 8.562697 1.508714 1.950040 2.260530 10.702419 -2.177058 -0.000000 0.000000 -0.000000 -0.000000 0.000000 -0.000000 -0.000000 0.000000 -0.000000 -14.532360 -3.161354 10.471426 4.917119 0.900918 -2.813225 -3.901540 -19.051133 3.348769 -0.000000 0.000000 0.000000 -0.000000 0.000000 0.000000 -0.000000 0.000000 0.000000
0.770090 -0.117419 0.709306 0.000000 0.000000 0.000000 3.470089 2.713592 -4.386535 9.697740 -4.137463 0.316155 7.591351 1.804669 6.755499 0.000000 0.000000 -0.000000 -16.403546 4.793238 -2.192602 -13.395591 -12.271522 7.494946 -0.000000 0.000000 -0.000000 -16.325725 1.978430 3.812263 -18.939983 12.394888 -1.052234 -0.000000 0.000000 0.000000 -21.012574 -3.470954 3.959173 12.746526 1.532628 2.929531 -3.078309 1.115077 2.669229 0.000000 0.000000 0.000000 0.000000 0.000000 0.000000 0.000000 0.000000 0.000000 -15.075585 -3.468807 10.236819 4.977262 1.129991 -2.196049 -4.777676 -10.809081 -3.020687 0.000000 0.000000 0.000000 0.000000 0.000000 0.000000 0.000000 0.000000 0.000000
0.767731 -0.112383 0.665695 0.000000 0.000000 0.000000 3.352866 2.795347 -4.552276 12.868872 -4.035780 0.512185 8.164901 1.756193 6.488920 -0.000000 0.000000 0.000000 -22.455996 4.379609 -2.288037 -13.598624 -11.919035 7.213771 -0.000000 0.000000 0.000000 -21.028402 0.918304 7.078974 -17.758009 11.000672 -2.087215 -0.000000 0.000000 -0.000000 -19.871386 -3.731036 2.349693 14.513320 1.535043 3.809858 -4.423862 -11.978907 10.036004 -0.000000 0.000000 -0.000000 -0.000000 0.000000 -0.000000 -0.000000 0.000000 -0.000000 -14.549398 -3.600114 9.833385 2.690334 1.354045 -1.527973 -4.529944 -4.085260 -4.071974 -0.000000 0.000000 0.000000 -0.000000 0.000000 0.000000 -0.000000 0.000000 0.000000
0.766998 -0.106991 0.606699 0.000000 0.000000 0.000000 3.237801 2.881798 -4.774914 12.713022 -3.794366 0.544781 9.937762 1.593948 6.810532 0.000000 0.000000 0.000000 -25.819162 3.223232 -1.761247 -12.740531 -11.709536 6.813515 0.000000 0.000000 -0.000000 -20.706788 -0.151104 9.215412 -17.586725 9.639805 -2.591747 -0.000000 0.000000 -0.000000 -19.290356 -4.065773 0.512314 16.631283 1.510470 4.529311 -7.619920 -14.088128 10.959394 -0.000000 0.000000 0.000000 -0.000000 0.000000 0.000000 -0.000000 0.000000 0.000000 -15.145959 -3.907109 9.702015 0.253960 1.378401 -1.428265 -5.340021 -9.605694 2.254705 0.000000 0.000000 0.000000 0.000000 0.000000 0.000000 0.000000 0.000000 0.000000
0.767826 -0.100397 0.535464 0.000000 0.000000 0.000000 3.058593 3.082556 -4.958192 11.343636 -3.754720 0.695489 11.745878 1.428400 6.937580 -0.000000 0.000000 -0.000000 -25.002522 2.325047 -1.008367 -12.899681 -11.712082 6.261794 -0.000000 0.000000 0.000000 -18.534399 -0.531488 9.532419 -17.685251 7.680805 -1.978719 -0.000000 0.000000 0.000000 -18.378938 -4.453192 -0.838924 17.306004 1.542718 5.024219 -10.707588 -8.386265 6.259984 -0.000000 0.000000 0.000000 -0.000000 0.000000 0.000000 -0.000000 0.000000 0.000000 -15.749688 -4.330494 9.437433 -3.193541 1.689084 -0.582913 -1.971592 -19.251064 10.489168 -0.000000 0.000000 -0.000000 -0.000000 0.000000 -0.000000 -0.000000 0.000000 -0.000000
0.773423 -0.091128 0.477058 0.000000 0.000000 0.000000 3.231700 3.211958 -5.158541 9.746234 -4.043714 0.693437 12.468036 1.586694 7.027428 0.000000 0.000000 -0.000000 -20.518945 1.956783 0.593241 -12.835554 -10.994584 5.563629 0.000000 0.000000 -0.000000 -16.331784 -0.406438 9.488891 -17.862717 6.235609 -1.247924 0.000000 0.000000 0.000000 -17.992364 -4.732280 -1.415890 17.677424 1.264731 4.766604 -11.979902 -6.497673 5.139208 0.000000 0.000000 -0.000000 0.000000 0.000000 -0.000000 0.000000 0.000000 -0.000000 -15.723218 -4.544485 9.210671 -7.362094 2.259396 1.271945 3.263626 -26.171958 16.207853 -0.000000 0.000000 -0.000000 -0.000000 0.000000 -0.000000 -0.000000 0.000000 -0.000000
0.779477 -0.083912 0.436127 0.000000 0.000000 0.000000 3.121572 2.933222 -5.187042 8.134018 -4.127694 0.423906 13.540372 1.953379 7.154363 -0.000000 0.000000 -0.000000 -15.304782 1.962422 2.267292 -13.389417 -9.985787 4.629511 0.000000 0.000000 0.000000 -14.036178 -0.028452 9.354280 -17.979897 5.202072 -0.608885 0.000000 0.000000 0.000000 -17.533901 -4.515376 -1.662923 17.891785 0.958999 4.374007 -12.148752 -3.995893 4.159731 0.000000 0.000000 0.000000 0.000000 0.000000 0.000000 0.000000 0.000000 0.000000 -15.109983 -4.244889 8.944994 -11.103276 2.616767 2.968487 7.791658 -30.135500 20.026636 0.000000 0.000000 -0.000000 0.000000 0.000000 -0.000000 0.000000 0.000000 -0.000000
0.792494 -0.073557 0.383010 0.000000 0.000000 0.000000 2.946628 2.558861 -4.964683 6.440767 -3.982502 0.183376 13.413116 2.156125 7.647081 -0.000000 0.000000 -0.000000 -9.848937 1.514921 4.436697 1.827644 -5.814049 3.963177 0.000000 0.000000 -0.000000 -10.229257 0.354083 8.203101 -18.078286 3.652612 0.541530 0.000000 0.000000 0.000000 -17.053621 -4.107309 -1.925867 17.325943 0.612843 3.874797 -12.233291 0.827723 1.641570 -0.000000 0.000000 0.000000 -0.000000 0.000000 0.000000 -0.000000 0.000000 0.000000 -14.786655 -3.834573 8.493137 -13.469673 2.854335 4.415225 15.206775 -31.717360 22.127522 0.000000 0.000000 0.000000 0.000000 0.000000 0.000000 0.000000 0.000000 0.000000
0.805663 -0.064126 0.330811 0.000000 0.000000 0.000000 2.919211 1.980121 -4.852121 5.439293 -3.474821 -0.235915 12.543580 2.259671 8.400928 0.000000 0.000000 0.000000 -5.731666 0.989730 6.770293 20.198866 -2.060877 1.723033 0.000000 0.000000 -0.000000 -7.224265 0.396193 7.660736 -18.231743 2.773408 1.271576 0.000000 0.000000 0.000000 -16.872661 -3.535327 -1.953141 16.299792 0.416927 3.587149 -11.718373 -0.867512 1.882225 0.000000 0.000000 0.000000 0.000000 0.000000 0.000000 0.000000 0.000000 0.000000 -15.057802 -3.385048 7.866393 -14.416770 3.017137 6.000897 20.950779 -30.892762 22.839591 -0.000000 0.000000 0.000000 -0.000000 0.000000 0.000000 -0.000000 0.000000 0.000000
0.821817 -0.050349 0.308596 0.000000 0.000000 0.000000 2.983369 1.347631 -4.673346 4.214573 -3.148808 -1.291881 10.512174 2.569789 9.523976 -0.000000 0.000000 -0.000000 9.161657 3.459286 9.702538 17.785158 -0.377382 -2.608293 -0.000000 0.000000 -0.000000 -4.714523 0.819197 7.240221 -18.399473 1.615833 2.476827 0.000000 0.000000 0.000000 -15.376099 -2.912964 -1.923316 13.972838 0.004505 2.973455 -10.095704 1.989489 1.818270 0.000000 0.000000 0.000000 0.000000 0.000000 0.000000 0.000000 0.000000 0.000000 -14.895482 -2.672791 7.971820 -13.470982 3.080049 5.808860 22.365615 -31.103545 23.734749 0.000000 0.000000 -0.000000 0.000000 0.000000 -0.000000 0.000000 0.000000 -0.000000
0.841383 -0.036776 0.287460 0.000000 0.000000 0.000000 2.819977 0.684605 -4.330799 3.029141 -2.716588 -2.131060 9.165415 2.672606 9.671776 0.000000 0.000000 0.000000 30.265890 7.241893 14.803519 5.952848 -0.326166 -10.119443 0.000000 0.000000 -0.000000 -2.615312 1.418031 6.050303 -18.544536 0.400743 3.976119 -0.000000 0.000000 0.000000 -13.852744 -2.184045 -1.947529 10.704940 -0.277392 2.482284 -5.089936 5.906647 -0.018722 0.000000 0.000000 -0.000000 0.000000 0.000000 -0.000000 0.000000 0.000000 -0.000000 -13.457171 -1.642753 8.305371 -10.208349 3.163082 4.759816 14.913842 -25.772146 15.822131 -0.000000 0.000000 -0.000000 -0.000000 0.000000 -0.000000 -0.000000 0.000000 -0.000000
0.864449 -0.027779 0.285393 0.000000 0.000000 0.000000 2.583257 0.420371 -3.456665 1.723475 -2.648537 -3.989402 10.980717 2.867547 8.391333 -0.000000 0.000000 -0.000000 49.643864 12.457997 18.734535 -5.226203 -0.983694 -15.912049 0.000000 0.000000 -0.000000 -2.007537 2.054841 5.837340 -17.292197 -0.683486 4.968885 0.000000 0.000000 -0.000000 -12.637992 -1.725989 -2.653914 8.010695 -0.730820 1.638735 2.487364 14.810249 -4.713557 -0.000000 0.000000 0.000000 -0.000000 0.000000 0.000000 -0.000000 0.000000 0.000000 -12.045272 -0.846908 8.322517 -5.576199 2.678123 2.224227 7.168705 -15.971024 7.830027 -0.000000 0.000000 0.000000 -0.000000 0.000000 0.000000 -0.000000 0.000000 0.000000
0.890955 -0.023071 0.297004 0.000000 0.000000 0.000000 2.547213 0.290081 -2.503848 1.008112 -2.428785 -5.682485 12.805014 2.856110 7.512993 -0.000000 0.000000 -0.000000 42.324655 10.701433 18.607148 -10.026553 0.769342 -13.743943 -0.000000 0.000000 0.000000 -1.797085 2.239281 5.835988 -17.552380 -1.297214 5.743710 0.000000 0.000000 -0.000000 -11.630555 -1.393445 -3.295296 6.059504 -1.244690 0.572384 8.029136 15.599437 -5.195435 0.000000 0.000000 -0.000000 0.000000 0.000000 -0.000000 0.000000 0.000000 -0.000000 -10.843564 -0.260043 7.898466 -1.404935 1.705618 -0.383111 2.567811 -5.921087 3.534538 0.000000 0.000000 -0.000000 0.000000 0.000000 -0.000000 0.000000 0.000000 -0.000000
